<?xml version="1.0" standalone="no"?>
<!DOCTYPE svg PUBLIC "-//W3C//DTD SVG 20010904//EN"
 "http://www.w3.org/TR/2001/REC-SVG-20010904/DTD/svg10.dtd">
<svg version="1.0" xmlns="http://www.w3.org/2000/svg"
 width="1024.000000pt" height="1024.000000pt" viewBox="0 0 1024.000000 1024.000000"
 preserveAspectRatio="xMidYMid meet">

<g transform="translate(0.000000,1024.000000) scale(0.100000,-0.100000)"
fill="#000000" stroke="none">
<path d="M4986 9185 c-138 -53 -218 -190 -197 -337 21 -152 104 -249 242 -284
109 -28 215 8 297 102 53 60 77 129 76 224 0 128 -65 231 -179 281 -64 29
-183 35 -239 14z m180 -184 c35 -21 74 -93 74 -135 0 -39 -39 -105 -72 -122
-15 -8 -47 -14 -72 -14 -73 0 -136 67 -136 145 0 47 33 111 68 129 38 21 101
20 138 -3z"/>
<path d="M4578 9134 c-13 -13 -14 -22 -6 -40 14 -29 44 -31 58 -4 24 46 -16
79 -52 44z"/>
<path d="M5572 9138 c-15 -15 -16 -55 -1 -63 18 -12 57 4 64 26 12 38 -35 65
-63 37z"/>
<path d="M4401 9121 c-19 -12 -9 -55 13 -59 19 -4 36 13 36 35 0 17 -33 33
-49 24z"/>
<path d="M5774 9085 c-13 -54 22 -75 52 -30 13 20 14 28 4 40 -20 24 -49 18
-56 -10z"/>
<path d="M4122 9058 c-28 -28 -1 -75 37 -63 11 3 23 15 26 26 12 38 -35 65
-63 37z"/>
<path d="M5992 9048 c-19 -19 -14 -44 13 -56 20 -9 27 -8 40 5 24 23 15 57
-15 61 -14 2 -31 -3 -38 -10z"/>
<path d="M3957 9016 c-18 -14 -22 -52 -8 -75 14 -23 51 4 51 38 0 37 -19 54
-43 37z"/>
<path d="M4440 9002 c-63 -7 -151 -24 -195 -37 -44 -14 -129 -39 -190 -55
-164 -45 -187 -52 -225 -70 -19 -10 -64 -28 -100 -40 -60 -21 -222 -94 -312
-141 -21 -11 -75 -39 -120 -62 -187 -97 -405 -239 -538 -351 -47 -40 -105 -87
-130 -106 -62 -48 -347 -333 -401 -402 -36 -47 -106 -134 -185 -231 -26 -32
-54 -81 -54 -95 0 -18 120 -9 182 13 24 8 53 15 66 15 12 0 22 4 22 8 0 5 26
14 58 21 53 12 131 44 142 60 3 4 21 19 41 34 27 20 55 30 105 36 38 4 75 6
82 4 7 -3 12 4 13 18 1 45 32 83 73 90 21 3 41 12 46 18 7 13 59 28 120 36
182 23 190 26 204 60 18 43 45 51 219 66 135 12 139 13 148 38 20 54 35 73 76
98 56 32 118 34 167 4 40 -25 53 -44 76 -110 l16 -44 100 2 c116 2 146 -8 169
-54 8 -18 15 -35 15 -38 0 -14 -230 -22 -775 -28 -110 -1 -184 -4 -165 -6 19
-3 39 -9 45 -14 5 -5 23 -9 40 -9 16 -1 41 -7 55 -14 16 -9 30 -11 42 -5 18
10 78 1 78 -12 0 -10 33 -43 96 -95 51 -43 81 -59 102 -55 6 1 12 -2 12 -6 0
-4 42 -9 92 -11 87 -2 94 -4 118 -31 15 -16 42 -31 63 -35 26 -5 35 -11 30
-19 -4 -7 6 -4 21 7 25 16 28 16 23 2 -11 -28 2 -17 19 17 46 89 205 321 280
409 100 115 172 177 308 266 227 147 427 194 672 158 193 -28 340 -92 499
-216 50 -38 116 -90 148 -115 76 -58 122 -62 172 -12 39 39 51 88 65 270 5 71
15 146 21 167 10 34 9 44 -16 94 -41 83 -52 182 -32 276 9 41 19 85 22 96 6
19 1 22 -32 29 -21 4 -80 20 -131 36 -93 30 -300 71 -422 84 l-65 7 0 -134 c0
-128 -1 -135 -31 -198 -59 -122 -156 -203 -284 -236 -181 -46 -401 58 -480
228 -29 63 -54 189 -46 231 3 12 7 40 10 62 l5 40 -67 0 c-37 0 -119 -6 -182
-13z m-62 -151 c9 -17 27 -35 39 -40 31 -14 29 -38 -6 -56 -16 -8 -33 -25 -37
-37 -13 -43 -44 -46 -44 -4 0 27 -18 46 -42 46 -27 0 -22 29 7 40 14 5 25 14
25 19 0 21 20 61 30 61 6 0 19 -13 28 -29z m1402 -50 c5 -11 10 -31 10 -45 0
-22 5 -26 44 -31 25 -4 52 -15 61 -25 19 -21 15 -23 -62 -35 -35 -6 -43 -11
-43 -28 -1 -55 -38 -61 -62 -10 -11 23 -20 29 -56 31 -72 5 -65 56 9 71 25 5
35 13 40 34 8 31 27 57 40 57 5 0 13 -9 19 -19z m-1743 -128 c54 -25 119 -103
137 -165 l16 -56 178 -4 c150 -2 182 -6 205 -21 28 -18 35 -49 17 -77 -8 -13
-96 -15 -694 -15 -376 0 -687 3 -691 7 -4 4 -3 24 2 45 12 54 43 62 239 62
l162 1 12 31 c12 28 72 69 102 69 7 0 32 23 56 50 80 93 165 117 259 73z
m1849 -186 c10 -30 21 -40 57 -51 28 -9 20 -32 -17 -50 -21 -10 -38 -27 -45
-46 -13 -39 -29 -38 -46 3 -9 23 -24 36 -50 46 -43 15 -41 29 9 56 24 13 43
33 52 54 16 37 24 35 40 -12z m153 -223 c26 -33 26 -55 2 -85 -23 -28 -42 -21
-68 22 -15 24 -14 28 7 58 13 17 27 31 31 31 4 0 17 -12 28 -26z m-2929 -40
c8 -20 22 -40 32 -45 25 -14 22 -37 -6 -50 -13 -6 -29 -22 -35 -35 -14 -32
-39 -31 -51 2 -6 14 -23 31 -40 37 -38 15 -38 32 1 49 18 8 36 26 44 46 18 42
38 41 55 -4z m1284 -26 c24 -35 20 -67 -9 -74 -31 -8 -51 0 -64 24 -8 16 -6
26 10 46 25 32 43 33 63 4z m-994 -34 c24 -45 -23 -92 -59 -60 -25 23 -27 43
-4 68 23 25 47 22 63 -8z m760 -35 c8 -19 24 -35 42 -41 36 -13 36 -31 -2 -45
-18 -7 -32 -21 -36 -37 -8 -33 -13 -32 -57 2 -20 15 -46 34 -59 43 -28 20 -18
49 17 49 20 0 29 7 36 30 14 40 43 39 59 -1z m-1290 -61 c0 -15 -6 -19 -27
-16 -32 3 -43 38 -22 65 12 13 15 13 31 -7 10 -12 18 -31 18 -42z m-150 -128
c19 -35 -29 -90 -67 -76 -29 11 9 96 43 96 7 0 18 -9 24 -20z m-228 -107 c22
-20 23 -51 2 -82 l-16 -23 -29 28 c-35 33 -37 56 -6 77 28 20 27 20 49 0z
m1456 -261 c-5 -24 -50 -46 -79 -39 -36 9 -37 55 -3 92 l27 29 29 -33 c16 -18
28 -40 26 -49z m-1634 39 c21 -23 14 -56 -15 -72 -30 -15 -49 -4 -49 30 0 62
29 81 64 42z"/>
<path d="M6185 9000 c-12 -13 -15 -27 -11 -45 8 -32 16 -32 52 6 28 30 28 31
10 45 -26 18 -29 18 -51 -6z"/>
<path d="M3726 8929 c-19 -27 -10 -49 19 -49 32 0 49 23 35 49 -14 27 -35 27
-54 0z"/>
<path d="M6301 8862 c-32 -46 -54 -146 -49 -223 4 -47 14 -84 38 -132 l33 -67
-17 -73 c-9 -39 -21 -117 -26 -172 -23 -230 -62 -318 -162 -360 -88 -36 -168
-15 -285 76 -292 228 -389 272 -630 286 -300 17 -581 -118 -810 -390 -170
-203 -301 -427 -611 -1047 -187 -374 -233 -453 -342 -590 -121 -152 -229 -242
-371 -310 -132 -62 -191 -75 -364 -74 -159 0 -272 19 -370 64 -61 28 -95 27
-95 -4 0 -36 43 -74 126 -112 226 -105 568 -102 810 6 283 127 488 339 772
795 100 161 145 222 225 304 144 147 298 210 477 194 33 -3 60 -3 60 -1 0 3
-24 57 -54 119 -60 127 -76 182 -76 263 0 178 91 326 248 403 72 36 81 38 168
38 86 -1 97 -4 169 -39 218 -108 318 -350 260 -627 -9 -40 -13 -74 -10 -77 6
-6 148 44 208 75 26 13 52 34 56 45 8 22 8 22 25 -3 9 -14 32 -71 50 -127 l34
-101 -28 -43 c-58 -90 -134 -145 -291 -213 -48 -20 -96 -46 -107 -58 -29 -31
-37 -70 -18 -87 14 -11 32 -8 114 15 255 71 431 225 456 396 4 27 0 91 -9 155
-9 60 -17 117 -18 127 -2 14 26 33 113 79 181 95 302 178 355 245 91 113 137
245 150 434 4 52 10 101 15 108 8 14 187 55 289 66 105 12 142 67 80 120 -68
56 -249 130 -347 141 -31 4 -63 11 -69 17 -9 6 -13 37 -13 87 0 104 -17 181
-54 243 -39 65 -72 74 -105 29z m-1073 -809 c2 -14 -4 -26 -17 -32 -25 -14
-34 -1 -25 34 8 32 38 30 42 -2z m-164 -26 c8 -12 7 -20 -2 -29 -16 -16 -47
13 -38 37 7 19 25 16 40 -8z m-160 -19 c8 -14 7 -21 -5 -33 -28 -29 -73 11
-48 42 15 17 38 13 53 -9z m612 -65 c-3 -8 -6 -17 -6 -19 0 -3 -4 -2 -10 1
-17 11 -12 45 6 38 8 -3 13 -12 10 -20z m-778 -31 c4 -28 -24 -40 -45 -19 -21
21 -9 49 19 45 15 -2 24 -11 26 -26z m-142 -124 c8 -27 -22 -54 -43 -37 -14
12 -18 41 -6 52 14 15 42 6 49 -15z m1022 -23 c15 -32 15 -30 -4 -50 -15 -15
-18 -15 -35 1 -23 21 -24 38 -3 58 21 22 29 20 42 -9z m-1144 -140 c9 -25 -5
-46 -28 -43 -15 2 -22 11 -24 31 -3 23 0 27 21 27 14 0 27 -7 31 -15z m-116
-167 c16 -16 15 -43 -1 -57 -17 -14 -37 4 -37 34 0 35 17 44 38 23z m-71 -194
c7 -19 -20 -49 -36 -40 -12 8 -15 39 -4 49 12 12 33 7 40 -9z m-122 -179 c0
-23 -4 -30 -20 -30 -21 0 -31 25 -21 51 11 28 41 12 41 -21z"/>
<path d="M3507 8854 c-12 -12 -8 -42 9 -58 23 -24 56 -3 52 32 -2 20 -9 28
-28 30 -14 2 -29 0 -33 -4z"/>
<path d="M6742 8798 c-16 -16 -15 -40 2 -64 15 -19 16 -18 43 9 22 22 26 31
17 45 -14 21 -45 27 -62 10z"/>
<path d="M3357 8783 c-14 -13 -6 -42 15 -57 19 -14 24 -14 37 -2 12 13 12 18
-3 40 -16 25 -36 33 -49 19z"/>
<path d="M6573 8679 l2 -72 80 -27 c123 -40 280 -127 326 -178 60 -68 64 -150
12 -212 -37 -45 -70 -58 -187 -76 -133 -19 -189 -35 -191 -54 -1 -8 -5 -53 -9
-100 -20 -256 -121 -425 -342 -572 -45 -30 -118 -71 -162 -93 l-81 -38 6 -126
c6 -135 13 -173 13 -73 0 47 3 62 14 62 8 0 18 -5 21 -10 4 -7 49 -10 115 -9
59 1 113 -2 118 -5 6 -3 12 -2 14 3 8 23 390 6 458 -20 14 -5 30 -20 35 -32
22 -50 89 -20 102 45 4 21 14 30 40 37 32 9 93 63 93 83 0 5 4 7 9 3 5 -3 13
0 16 6 4 6 18 8 32 4 18 -4 23 -2 17 6 -12 21 122 1 175 -25 30 -15 57 -22 77
-19 20 3 48 -4 80 -19 27 -14 69 -34 94 -45 l44 -20 21 41 c35 71 102 55 93
-22 -3 -26 -2 -26 42 -23 25 1 52 7 62 12 9 5 37 9 62 9 34 0 46 4 46 15 0 12
14 15 69 15 96 0 131 8 131 31 0 16 8 19 59 19 45 0 60 4 65 16 3 9 4 20 1 25
-4 5 2 6 12 2 16 -6 16 -5 5 10 -8 9 -11 21 -7 27 3 5 3 10 -2 11 -4 0 -18 2
-30 5 -12 2 -25 -1 -28 -6 -15 -24 -35 -9 -35 25 0 19 -3 35 -7 35 -5 0 -8 11
-8 25 0 28 5 31 23 13 7 -7 12 -9 12 -5 0 9 -66 112 -100 157 -15 19 -60 80
-100 135 -41 55 -99 129 -130 165 -82 96 -295 303 -375 363 -254 193 -408 298
-560 380 -180 98 -316 167 -330 167 -12 0 -14 -14 -12 -71z m767 -574 c28 -34
-32 -93 -65 -65 -20 16 -19 39 2 62 20 22 46 23 63 3z m-486 -237 c12 -20 -17
-68 -41 -68 -23 0 -53 29 -53 51 0 43 69 56 94 17z m723 -5 c2 -6 -7 -24 -21
-39 l-24 -29 -36 18 c-46 21 -46 42 2 65 30 15 41 17 56 7 11 -6 21 -16 23
-22z m-431 1 c19 -9 42 -30 50 -46 13 -25 13 -32 -1 -62 -27 -56 -91 -73 -139
-35 -56 44 -53 103 6 139 40 24 41 24 84 4z m208 -11 c8 -20 -11 -43 -35 -43
-19 0 -25 23 -13 53 7 18 40 11 48 -10z m-539 -213 c43 -48 -28 -108 -76 -64
-23 21 -24 42 -2 66 21 24 55 23 78 -2z m685 2 c27 -22 21 -54 -14 -77 -27
-18 -49 -12 -70 20 -14 21 -14 25 5 49 24 31 48 33 79 8z m270 -6 c28 -35 -11
-93 -47 -70 -36 22 -23 84 17 84 10 0 23 -7 30 -14z m-1090 -190 c6 -8 10 -25
8 -38 -2 -18 -10 -24 -36 -26 -36 -4 -48 13 -38 53 7 29 45 35 66 11z m1011
-4 c26 -22 22 -43 -15 -67 -23 -15 -26 -15 -50 0 -32 21 -32 32 -4 62 26 28
39 29 69 5z m-746 -85 c11 -41 -27 -107 -61 -107 -8 0 -22 16 -31 36 l-18 36
33 29 c39 35 69 38 77 6z m375 7 c17 -20 2 -67 -23 -72 -36 -7 -75 57 -50 81
12 13 61 7 73 -9z m-189 -20 c18 -22 -1 -49 -36 -49 -31 0 -51 24 -42 49 8 21
60 21 78 0z m-608 -30 l29 -35 -21 -45 c-19 -40 -41 -59 -41 -34 0 5 -14 25
-31 44 l-31 35 27 36 c15 19 30 35 34 35 3 0 19 -16 34 -36z m1489 -9 c10 -22
8 -30 -9 -53 -25 -34 -50 -39 -68 -15 -20 26 -18 50 5 73 28 28 58 25 72 -5z
m-518 -14 c23 -25 17 -52 -13 -67 -32 -16 -61 2 -61 36 0 49 42 66 74 31z
m-54 -75 c0 -3 -4 -8 -10 -11 -5 -3 -10 -1 -10 4 0 6 5 11 10 11 6 0 10 -2 10
-4z"/>
<path d="M3188 8695 c-10 -22 -9 -29 10 -47 21 -21 22 -21 42 -3 23 20 26 45
8 63 -20 20 -48 14 -60 -13z"/>
<path d="M6912 8708 c-16 -16 -15 -57 2 -64 27 -10 57 15 54 44 -3 30 -35 41
-56 20z"/>
<path d="M3034 8594 c-9 -35 18 -59 48 -43 30 16 21 63 -14 67 -23 3 -29 -2
-34 -24z"/>
<path d="M7110 8591 c-18 -35 -12 -61 14 -61 17 0 27 8 33 28 6 15 8 33 6 40
-7 19 -41 14 -53 -7z"/>
<path d="M2876 8494 c-9 -23 23 -56 48 -52 16 2 22 12 24 36 3 31 2 32 -31 32
-23 0 -37 -6 -41 -16z"/>
<path d="M7282 8493 c-7 -2 -17 -14 -23 -25 -8 -15 -7 -24 7 -39 24 -27 53
-24 64 7 17 43 -9 73 -48 57z"/>
<path d="M2720 8381 c-22 -42 24 -85 55 -51 15 17 16 24 7 45 -14 30 -47 33
-62 6z"/>
<path d="M7430 8355 c-12 -23 -12 -28 6 -45 17 -17 23 -18 37 -8 10 7 19 27
20 43 2 25 -2 30 -24 33 -19 2 -29 -4 -39 -23z"/>
<path d="M2555 8260 c-10 -16 4 -48 24 -55 31 -10 52 5 49 34 -2 21 -9 27 -35
29 -17 2 -34 -2 -38 -8z"/>
<path d="M7610 8225 c-10 -12 -10 -21 0 -45 7 -16 16 -30 21 -30 14 0 41 48
37 67 -4 23 -41 29 -58 8z"/>
<path d="M2410 8125 c-10 -12 -10 -21 -2 -40 14 -31 43 -32 60 -4 11 18 11 24
-4 40 -21 23 -37 24 -54 4z"/>
<path d="M7756 8085 c-12 -13 -14 -21 -5 -36 23 -44 73 -29 67 20 -4 31 -38
40 -62 16z"/>
<path d="M7887 7919 c-6 -24 8 -59 23 -59 18 0 51 41 48 58 -2 11 -15 18 -34
20 -25 2 -33 -1 -37 -19z"/>
<path d="M2218 7905 c-9 -21 -9 -29 4 -42 25 -25 50 -9 46 29 -4 42 -33 50
-50 13z"/>
<path d="M8019 7769 c-20 -20 -20 -22 -3 -40 34 -37 82 -13 70 36 -8 31 -38
33 -67 4z"/>
<path d="M2087 7758 c-9 -34 9 -59 36 -49 26 10 34 36 17 56 -18 22 -47 18
-53 -7z"/>
<path d="M4940 7760 c-135 -23 -261 -170 -277 -326 -7 -70 12 -130 106 -325
83 -173 115 -270 151 -454 17 -91 22 -174 31 -485 5 -206 14 -391 19 -410 12
-46 70 -113 116 -135 61 -29 210 -54 388 -65 187 -11 246 -19 246 -30 0 -17
-107 -22 -345 -15 -304 8 -341 13 -405 60 -95 70 -119 166 -120 482 0 83 -4
154 -8 157 -14 9 -163 -51 -189 -76 -14 -13 -45 -64 -70 -115 -30 -62 -52 -94
-66 -99 -29 -9 -130 -107 -175 -169 -20 -27 -60 -79 -90 -114 l-54 -64 4 152
c3 168 4 171 69 171 19 0 43 6 54 13 17 14 17 15 0 45 -26 43 -65 58 -115 43
-50 -15 -75 -47 -100 -128 -11 -36 -34 -84 -52 -107 -41 -53 -169 -179 -175
-172 -3 2 0 28 6 56 9 40 8 58 -1 78 -23 47 -51 40 -122 -32 -54 -55 -71 -66
-108 -72 -23 -3 -74 -23 -113 -44 l-70 -37 -196 -7 -197 -7 4 23 c6 34 -7 46
-43 41 -27 -4 -32 -10 -35 -37 l-3 -31 -160 3 c-88 1 -335 -2 -549 -8 -213 -6
-390 -9 -393 -6 -10 10 30 55 62 71 49 23 61 49 35 75 -11 11 -27 20 -36 20
-15 0 -95 -77 -141 -137 -24 -31 -63 -45 -63 -23 0 21 101 210 129 243 44 49
52 79 59 201 6 124 0 136 -68 136 -50 0 -77 -27 -84 -87 -9 -78 -10 -156 -2
-186 6 -18 3 -38 -7 -60 -9 -17 -25 -56 -36 -85 -31 -79 -70 -152 -81 -152 -6
0 -10 54 -10 138 0 75 -3 160 -6 188 -6 50 -5 52 22 66 l29 13 -4 280 c-4 302
-8 329 -56 341 -43 11 -73 -4 -100 -50 -29 -49 -32 -96 -27 -387 2 -148 4
-167 21 -186 11 -12 24 -23 30 -24 11 -4 3 -379 -8 -379 -3 0 -33 48 -66 106
-33 58 -69 120 -81 138 -18 28 -19 35 -8 51 10 13 14 53 14 136 0 112 -1 118
-22 124 -32 11 -99 8 -112 -5 -16 -16 -14 -304 3 -324 7 -8 25 -18 41 -21 32
-7 55 -29 65 -65 4 -14 25 -55 46 -91 45 -76 49 -94 17 -85 -40 11 -165 19
-192 12 -14 -3 -33 -18 -42 -32 -17 -24 -16 -26 9 -52 l27 -26 3811 -1 c2563
0 3816 3 3825 10 18 13 27 66 15 85 -8 11 -36 16 -121 18 -95 3 -112 6 -120
22 -6 11 -13 73 -17 138 -5 98 -3 127 10 160 10 26 18 90 23 179 8 155 -3 197
-51 209 -31 8 -72 -18 -80 -49 -10 -40 2 -318 20 -469 10 -80 15 -153 12 -162
-9 -22 -64 -21 -76 2 -28 52 -43 152 -42 273 1 112 0 127 -18 143 -28 26 -73
17 -89 -17 -11 -22 -12 -51 -4 -138 9 -94 16 -121 46 -186 20 -41 36 -81 36
-88 0 -9 -39 -11 -172 -7 -95 2 -174 5 -175 7 -2 1 -4 72 -5 158 l-3 157 91
92 c50 51 117 131 149 178 32 47 87 126 121 175 34 50 68 106 77 126 11 28 23
38 56 48 29 8 48 22 61 44 36 58 24 99 -42 147 -35 26 -50 30 -103 30 -72 0
-141 -30 -164 -72 -13 -23 -13 -31 3 -73 15 -38 26 -51 60 -66 22 -10 51 -19
63 -19 20 0 11 -17 -77 -148 -107 -158 -250 -335 -277 -341 -27 -6 -10 69 30
130 39 58 128 272 152 366 8 31 15 75 15 96 0 35 -2 38 -16 26 -24 -19 -76
-131 -118 -250 -21 -59 -48 -124 -62 -145 l-23 -39 -1 232 0 231 33 7 c41 9
86 32 115 58 16 15 22 32 22 64 0 117 -192 185 -328 117 -56 -28 -102 -78
-102 -111 0 -25 37 -80 70 -105 14 -10 45 -22 70 -26 l45 -8 6 -224 c4 -124 5
-226 4 -228 -10 -11 -72 118 -116 238 -47 130 -57 151 -103 198 -71 74 -109
92 -196 92 -78 0 -127 -19 -169 -64 -56 -59 -14 -145 74 -156 45 -5 47 -6 69
-60 39 -97 235 -357 365 -485 l71 -69 0 -160 0 -159 -52 7 c-29 4 -90 10 -135
14 -45 4 -83 9 -86 12 -2 3 -32 59 -67 125 -35 66 -99 188 -142 270 -43 83
-90 161 -103 174 -16 17 -41 26 -78 31 -29 5 -80 20 -112 35 -32 14 -98 37
-147 50 -68 18 -99 32 -127 58 -35 31 -45 35 -127 42 -49 4 -186 11 -304 14
l-215 6 -3 69 -3 69 -151 -6 c-83 -4 -231 -7 -328 -7 l-178 0 -7 -56 c-8 -66
-21 -74 -124 -74 -100 0 -238 -28 -242 -49 -1 -3 -3 -108 -4 -233 l-4 -227 34
-11 c18 -6 57 -13 86 -15 30 -3 74 -12 99 -21 25 -8 81 -20 125 -24 189 -20
503 -87 624 -133 65 -24 166 -101 156 -118 -12 -18 -96 -8 -177 22 -108 40
-406 101 -683 140 -237 33 -311 50 -347 79 l-23 18 1 289 c1 447 20 603 105
883 58 190 71 252 71 355 1 184 -76 341 -202 409 -55 30 -141 46 -200 36z
m2880 -1369 c32 -97 126 -299 164 -354 34 -49 46 -87 28 -87 -40 0 -406 476
-380 494 2 1 24 10 51 20 30 11 57 31 75 54 l27 35 7 -51 c5 -29 17 -78 28
-111z m-2362 -292 c4 -24 3 -24 -12 -4 -19 24 -20 38 -3 33 6 -3 13 -15 15
-29z m1802 -534 c11 -13 8 -15 -21 -14 -19 1 -26 3 -16 6 9 2 17 9 17 14 0 13
6 11 20 -6z"/>
<path d="M3047 7730 c-73 -22 -127 -93 -127 -169 0 -31 7 -49 31 -75 16 -19
39 -38 50 -41 17 -6 19 -16 19 -91 0 -83 0 -84 -25 -84 -42 0 -117 -31 -190
-77 -38 -25 -73 -50 -77 -56 -3 -6 -20 11 -37 38 -32 50 -39 75 -21 75 15 0
59 50 106 123 24 37 48 67 54 67 5 0 14 17 21 38 14 48 -6 93 -54 122 -43 26
-63 25 -83 -5 -15 -24 -15 -28 5 -74 17 -40 20 -81 6 -81 -1 0 -21 18 -43 40
-24 24 -49 40 -63 40 -27 0 -89 -35 -89 -50 0 -5 -8 -10 -18 -10 -10 0 -35
-15 -56 -32 -49 -43 -56 -86 -24 -147 29 -56 67 -84 114 -85 34 -1 40 -6 87
-76 28 -41 69 -100 92 -130 24 -30 84 -125 135 -210 52 -85 106 -171 120 -190
25 -32 28 -45 32 -142 3 -60 3 -108 1 -108 -23 0 -171 220 -182 271 -5 23 -15
46 -23 50 -22 14 -58 10 -65 -8 -13 -33 106 -226 206 -335 l61 -66 0 -146 0
-146 28 6 c52 13 52 14 52 209 l0 183 48 59 c74 89 104 138 164 264 69 145
114 213 279 420 60 75 74 87 107 93 58 9 102 65 102 131 0 73 -38 124 -106
141 -15 4 -44 24 -64 46 -48 50 -81 51 -126 2 -32 -33 -34 -40 -34 -105 0 -40
4 -69 10 -69 12 0 120 -106 120 -118 0 -4 -22 -33 -49 -62 l-48 -55 -41 37
c-66 59 -170 105 -291 128 -30 6 -59 16 -63 23 -9 14 -10 92 -2 122 3 11 23
28 45 38 123 58 119 227 -6 269 -58 19 -52 19 -88 8z m643 -421 c0 -12 -7 -19
-19 -19 -27 0 -34 15 -19 39 14 23 38 11 38 -20z m-442 -155 c29 -8 79 -28
111 -44 32 -17 63 -30 69 -30 27 0 20 -25 -21 -83 -67 -94 -132 -206 -172
-293 -39 -85 -121 -231 -136 -240 -5 -3 -9 143 -9 356 l0 361 53 -6 c28 -4 76
-13 105 -21z m-232 -239 c-1 -140 -2 -255 -3 -255 -1 0 -29 51 -64 113 -34 61
-90 155 -124 207 -34 52 -64 101 -69 107 -5 9 1 11 22 7 20 -4 43 1 73 17 37
19 140 57 160 58 3 1 5 -114 5 -254z"/>
<path d="M3157 7043 c-16 -16 -5 -45 26 -63 22 -14 46 -20 77 -18 40 3 45 6
48 29 3 23 -3 29 -38 43 -41 16 -101 21 -113 9z"/>
<path d="M1667 7720 c-3 -8 -8 -27 -11 -42 -5 -23 -13 -29 -47 -34 -50 -8 -51
-37 -1 -42 35 -4 52 -29 52 -77 0 -46 19 -34 30 19 9 45 15 55 36 60 29 8 32
36 4 36 -12 0 -24 9 -29 23 -27 68 -29 72 -34 57z"/>
<path d="M1970 7600 c0 -22 5 -30 18 -30 23 0 42 19 42 42 0 13 -8 18 -30 18
-27 0 -30 -3 -30 -30z"/>
<path d="M8147 7613 c-4 -3 -7 -19 -7 -35 0 -21 5 -28 19 -28 19 0 51 24 51
39 0 22 -47 41 -63 24z"/>
<path d="M3328 7593 c-19 -23 -48 -108 -48 -143 0 -27 17 -48 57 -69 19 -10
24 -6 52 36 53 80 37 193 -27 193 -11 0 -26 -8 -34 -17z"/>
<path d="M8241 7431 c-13 -24 8 -55 34 -50 23 5 40 32 32 53 -9 22 -54 20 -66
-3z"/>
<path d="M1835 7400 c-7 -12 11 -40 26 -40 14 0 10 26 -5 39 -10 9 -16 9 -21
1z"/>
<path d="M8340 7282 c0 -43 23 -59 56 -38 39 26 30 60 -18 64 -36 3 -38 2 -38
-26z"/>
<path d="M1760 7246 c0 -18 16 -29 30 -21 13 8 1 35 -16 35 -8 0 -14 -6 -14
-14z"/>
<path d="M1684 7156 c-10 -26 4 -48 28 -44 15 2 24 11 26 26 2 12 -1 22 -6 22
-6 0 -17 3 -26 6 -10 4 -18 0 -22 -10z"/>
<path d="M2114 7160 c-109 -22 -233 -121 -279 -222 -52 -116 -54 -261 -4 -365
78 -161 283 -249 460 -197 148 44 219 112 270 262 47 136 1 323 -104 419 -96
89 -223 127 -343 103z m336 -262 c13 -21 19 -46 18 -68 l-3 -35 -61 -3 c-34
-2 -77 1 -95 6 l-34 9 34 21 c19 11 38 19 43 16 5 -3 7 0 6 7 -2 7 7 18 20 24
12 5 22 17 22 26 0 39 25 38 50 -3z m-337 -3 c8 -8 17 -11 21 -8 3 4 6 -1 6
-10 0 -27 -22 -31 -42 -7 -29 36 -17 58 15 25z m-35 -95 c11 -17 10 -20 -7
-20 -11 0 -32 5 -46 12 -24 11 -25 13 -8 19 31 13 48 10 61 -11z m133 0 c25
-14 24 -46 -2 -60 -16 -9 -25 -8 -40 6 -42 38 -9 81 42 54z m269 -102 c0 -19
-2 -20 -10 -8 -13 19 -13 30 0 30 6 0 10 -10 10 -22z m-196 -4 c3 -8 2 -12 -4
-9 -6 3 -10 10 -10 16 0 14 7 11 14 -7z"/>
<path d="M8443 7160 c-27 -11 -32 -57 -8 -66 21 -8 65 22 65 45 0 15 -22 35
-33 30 -1 0 -12 -4 -24 -9z"/>
<path d="M8326 7147 c3 -10 9 -15 12 -12 3 3 0 11 -7 18 -10 9 -11 8 -5 -6z"/>
<path d="M7613 7112 c4 -29 38 -54 58 -41 9 5 10 9 2 9 -7 0 -24 12 -38 28
-25 26 -25 26 -22 4z"/>
<path d="M7110 7030 l-34 -70 -44 0 c-39 0 -43 -2 -40 -22 2 -15 13 -26 33
-32 64 -19 76 -27 107 -77 l31 -52 13 42 c15 51 37 77 87 102 52 27 50 55 -5
50 -17 -2 -54 42 -82 97 -9 17 -20 32 -24 32 -5 0 -23 -31 -42 -70z"/>
<path d="M6725 7070 c-3 -6 1 -7 9 -4 18 7 21 14 7 14 -6 0 -13 -4 -16 -10z"/>
<path d="M6306 7013 c-3 -3 -29 -8 -58 -12 -51 -7 -49 -7 57 -18 78 -9 113 -9
122 -1 8 6 11 13 8 16 -2 3 -12 -1 -22 -9 -11 -9 -14 -10 -9 -1 4 6 4 12 -1
12 -4 1 -27 5 -50 9 -23 5 -45 6 -47 4z"/>
<path d="M8506 7005 c-16 -17 -9 -46 15 -60 16 -10 50 26 47 49 -4 26 -40 33
-62 11z"/>
<path d="M1583 6963 c-13 -37 -6 -53 23 -53 16 0 28 8 36 24 14 33 4 56 -26
56 -17 0 -27 -8 -33 -27z"/>
<path d="M3506 6834 c-19 -19 -20 -26 -4 -42 28 -28 75 -1 63 38 -8 24 -37 26
-59 4z"/>
<path d="M8599 6843 c-19 -5 -31 -37 -22 -59 12 -32 83 -5 83 31 0 12 -32 38
-42 34 -2 -1 -10 -3 -19 -6z"/>
<path d="M4475 6766 c-36 -34 -36 -35 -20 -65 8 -17 29 -38 47 -47 29 -15 32
-15 57 4 14 10 30 31 35 46 9 23 5 31 -24 61 -19 19 -39 35 -46 35 -7 0 -29
-15 -49 -34z"/>
<path d="M1491 6741 c-16 -29 -13 -48 4 -25 13 18 14 18 9 -6 -5 -20 -3 -22 5
-10 13 19 14 47 2 55 -6 3 -15 -3 -20 -14z"/>
<path d="M6595 6618 c-22 -17 -26 -26 -21 -51 14 -67 42 -73 81 -17 23 33 26
42 15 55 -27 32 -46 36 -75 13z"/>
<path d="M3352 6554 c-29 -20 -28 -50 3 -70 23 -15 27 -15 50 0 29 19 32 37 8
58 -31 26 -39 28 -61 12z"/>
<path d="M4466 6553 c-3 -3 -6 -19 -6 -35 0 -26 3 -28 40 -28 46 0 49 8 18 37
-31 27 -44 34 -52 26z"/>
<path d="M4636 6538 c-29 -42 -16 -58 48 -58 36 0 56 15 56 42 0 40 -79 52
-104 16z"/>
<path d="M7160 6538 c-11 -12 -20 -30 -20 -39 0 -38 121 -34 128 4 5 22 -33
57 -63 57 -13 0 -33 -10 -45 -22z"/>
<path d="M1377 6513 c-22 -21 5 -73 38 -73 12 0 22 46 13 63 -9 17 -39 23 -51
10z"/>
<path d="M4263 6493 c9 -2 23 -2 30 0 6 3 -1 5 -18 5 -16 0 -22 -2 -12 -5z"/>
<path d="M8727 6435 c-19 -19 -12 -42 15 -51 24 -7 39 11 36 41 -4 25 -31 31
-51 10z"/>
<path d="M3250 6360 c-26 -26 -25 -52 3 -78 29 -27 47 -28 81 -1 31 25 32 38
5 73 -25 31 -61 34 -89 6z"/>
<path d="M4538 6369 c-23 -13 -23 -51 0 -72 26 -24 65 -21 91 7 18 19 21 28
12 44 -17 32 -67 42 -103 21z"/>
<path d="M2530 6340 c-25 -25 -25 -42 -2 -63 25 -23 48 -21 66 5 23 33 20 57
-10 68 -33 13 -31 13 -54 -10z"/>
<path d="M4050 6345 c-27 -33 17 -65 89 -65 22 0 44 6 51 15 7 9 11 17 9 18
-74 46 -127 58 -149 32z"/>
<path d="M7377 6343 c-16 -16 -6 -43 16 -43 17 0 23 6 25 25 1 18 -3 25 -16
25 -10 0 -22 -3 -25 -7z"/>
<path d="M2688 6291 c-29 -26 -31 -31 -21 -54 7 -14 26 -33 44 -42 31 -16 32
-16 68 13 46 37 50 63 15 91 -36 29 -68 26 -106 -8z"/>
<path d="M4269 6201 c-22 -18 -23 -21 -9 -46 24 -45 54 -60 90 -45 17 7 35 22
41 32 9 16 6 25 -17 49 -33 34 -71 38 -105 10z"/>
<path d="M4012 6188 c-21 -21 -13 -45 23 -77 39 -34 63 -31 85 9 27 50 -67
109 -108 68z"/>
<path d="M8809 6184 c-18 -22 14 -53 39 -38 23 15 21 35 -5 45 -15 5 -25 3
-34 -7z"/>
<path d="M2313 6171 c-12 -3 -41 -23 -63 -43 -39 -36 -44 -38 -111 -38 l-70 0
2 -127 c0 -71 -2 -145 -6 -165 -6 -34 -5 -38 19 -44 41 -10 56 1 56 43 0 93 9
112 65 144 28 16 62 40 75 54 25 27 67 33 102 14 15 -8 22 -8 28 1 6 10 22 10
75 1 36 -7 75 -9 86 -6 22 7 43 41 34 55 -11 18 -168 93 -220 105 -27 6 -60 9
-72 6z"/>
<path d="M2732 6054 c-28 -20 -28 -45 1 -72 30 -28 48 -28 75 1 27 28 28 49 4
70 -23 21 -51 22 -80 1z"/>
<path d="M3880 6053 c-28 -10 -60 -46 -60 -68 0 -58 82 -74 131 -26 16 16 29
34 29 39 0 14 -58 62 -73 61 -7 0 -19 -3 -27 -6z"/>
<path d="M7706 5984 c-19 -19 -20 -26 -4 -42 16 -16 43 -15 58 3 10 13 10 19
-5 35 -22 24 -29 25 -49 4z"/>
<path d="M8754 5946 c-13 -21 -15 -50 -12 -170 2 -79 6 -147 10 -151 9 -9 59
18 87 48 20 22 24 40 31 134 5 63 4 115 -1 125 -23 43 -90 51 -115 14z"/>
<path d="M1385 5283 c-50 -5 -130 -62 -157 -113 -18 -33 -18 -67 -16 -700 l3
-665 24 -60 c31 -79 100 -147 163 -163 55 -14 168 2 313 45 118 35 271 36 385
4 299 -85 351 -87 540 -26 160 51 234 51 432 2 81 -20 157 -37 170 -37 13 0
82 17 154 37 114 33 142 37 239 37 84 0 128 -5 185 -22 160 -47 240 -48 384
-6 82 23 170 18 287 -18 139 -42 216 -42 354 1 196 63 416 66 655 11 74 -17
173 -34 220 -37 87 -5 110 -1 320 58 64 18 93 20 205 16 110 -5 156 -12 295
-47 197 -51 236 -50 410 5 190 61 321 57 569 -17 92 -27 114 -30 190 -25 54 3
132 19 209 41 232 66 374 68 567 5 127 -42 190 -47 248 -21 70 31 142 104 169
171 l23 56 -2 655 c-2 360 -3 663 -3 673 0 26 -75 103 -124 127 l-42 20 -3665
-2 c-2015 -1 -3682 -3 -3704 -5z m5230 -165 c77 -19 182 -76 220 -121 47 -55
97 -158 99 -203 l1 -35 -92 -3 -92 -3 -38 39 c-21 22 -54 48 -74 58 -35 18
-115 36 -154 34 -11 -1 -32 -2 -48 -3 -16 0 -43 -15 -64 -34 -32 -30 -36 -40
-36 -80 0 -87 32 -111 228 -172 201 -63 285 -116 329 -208 76 -162 43 -332
-88 -455 -87 -81 -160 -115 -278 -128 -55 -6 -167 9 -235 32 -54 18 -173 98
-218 144 l-30 31 78 72 c42 40 83 87 91 105 l13 34 36 -51 c68 -95 152 -130
260 -110 99 18 147 66 147 148 0 67 -35 97 -155 130 -220 63 -310 112 -372
204 -74 111 -84 262 -23 375 36 68 109 141 174 174 82 42 213 53 321 26z
m-4949 -15 c9 -16 37 -59 62 -98 72 -111 274 -451 328 -553 l49 -93 7 68 c4
37 7 208 7 378 l0 310 131 3 131 3 -6 -23 c-3 -13 -6 -307 -8 -655 -2 -348 -5
-634 -7 -635 -3 -2 -53 -1 -112 2 l-108 5 -41 70 c-23 39 -51 93 -63 120 -13
28 -57 111 -98 185 -41 74 -108 196 -148 270 -66 124 -90 163 -90 149 0 -3 9
-41 20 -84 18 -70 20 -111 20 -397 l0 -318 -120 0 c-66 0 -123 0 -127 0 -5 0
-7 11 -5 23 1 12 2 306 2 654 l0 632 67 4 c38 2 74 4 80 5 7 1 20 -10 29 -25z
m2188 -14 c5 -19 51 -160 102 -314 50 -154 103 -318 117 -365 89 -302 123
-404 163 -492 25 -55 44 -101 42 -102 -1 -2 -63 -6 -135 -8 l-133 -5 -47 144
-47 143 -194 0 c-145 0 -193 -3 -196 -12 -2 -7 -21 -70 -42 -140 l-38 -128
-123 0 c-74 0 -123 4 -123 10 0 5 13 51 29 102 16 51 50 165 76 253 70 238
292 907 309 931 14 19 23 21 123 18 l108 -2 9 -33z m988 17 c70 -23 185 -100
212 -140 9 -15 19 -39 22 -54 5 -24 0 -32 -33 -57 -21 -15 -57 -46 -80 -68
l-41 -39 -12 23 c-24 47 -98 92 -179 110 -63 13 -123 -2 -163 -41 -23 -24 -28
-37 -28 -78 0 -85 32 -108 235 -168 173 -51 256 -106 317 -212 32 -55 33 -61
33 -162 0 -96 -3 -110 -29 -164 -38 -78 -137 -175 -219 -216 -111 -55 -288
-50 -412 11 -67 33 -200 135 -200 154 0 6 24 31 54 56 33 27 67 67 87 104 19
33 34 54 34 47 0 -26 101 -120 152 -142 158 -68 335 61 258 188 -24 39 -88 70
-257 126 -217 72 -304 161 -320 328 -16 181 97 345 282 404 63 21 213 15 287
-10z m3442 8 c104 -27 165 -62 247 -143 67 -66 119 -141 119 -169 0 -5 -21
-17 -47 -27 -26 -10 -66 -36 -89 -57 l-43 -39 -20 38 c-64 126 -240 194 -373
143 -79 -29 -148 -94 -184 -172 -24 -53 -29 -79 -32 -161 -8 -222 88 -407 236
-450 120 -36 314 45 343 143 l12 38 68 -68 c37 -38 84 -74 104 -81 19 -7 35
-17 35 -22 0 -5 -26 -37 -57 -73 -60 -68 -140 -125 -238 -171 -55 -25 -70 -28
-176 -28 l-116 0 -104 52 c-168 83 -276 208 -337 390 -24 71 -26 93 -26 238
-1 151 1 165 27 240 99 279 387 447 651 379z m-4984 -114 l0 -119 -137 -3
-138 -3 -3 -532 -2 -533 -125 0 -125 0 0 534 0 534 -62 -1 c-35 -1 -102 -1
-150 1 l-88 2 0 120 0 120 415 0 415 0 0 -120z m2690 16 c0 -57 -3 -111 -6
-120 -5 -14 -28 -16 -150 -16 l-144 0 0 -182 c0 -101 -3 -342 -7 -535 l-6
-353 -119 0 -118 0 0 529 0 528 -92 7 c-50 3 -110 6 -133 6 -30 0 -45 5 -49
16 -8 21 -8 153 0 193 l7 31 408 0 409 0 0 -104z m1413 62 c3 -24 3 -319 0
-655 l-6 -613 -118 0 -117 0 1 650 2 649 25 4 c14 2 66 5 116 6 l91 1 6 -42z
m-4828 -637 c3 -6 -4 -9 -15 -8 -11 1 -20 5 -20 9 0 11 28 10 35 -1z m-1195
-10 c0 -12 -29 -23 -41 -15 -5 3 -7 10 -4 15 8 12 45 12 45 0z m1195 -187 c0
-19 -6 -30 -16 -32 -20 -4 -33 37 -17 55 17 21 32 10 33 -23z m-24 -166 c11
-20 10 -21 -3 -11 -8 7 -18 10 -21 6 -4 -3 -7 -2 -7 4 0 9 10 23 16 23 2 0 9
-10 15 -22z m6209 -192 c-14 -14 -24 0 -16 21 6 15 8 15 16 3 6 -9 5 -19 0
-24z"/>
<path d="M3720 4720 c0 -14 -22 -70 -49 -125 -121 -248 -141 -293 -141 -318
l0 -27 211 0 211 0 -7 36 c-10 55 -48 136 -83 175 -31 35 -88 150 -112 225
-16 50 -30 66 -30 34z"/>
<path d="M1825 3559 c-33 -5 -125 -25 -204 -45 -133 -34 -152 -36 -243 -31
-89 6 -99 4 -108 -13 -15 -28 4 -66 41 -86 60 -30 133 -29 256 6 286 79 421
81 649 9 141 -45 248 -49 369 -14 242 69 243 69 335 57 47 -7 126 -24 175 -39
121 -36 182 -34 325 8 100 30 129 34 225 34 95 0 125 -5 219 -33 60 -17 122
-32 138 -32 16 0 75 12 131 26 86 22 117 25 197 21 60 -3 117 -13 154 -26 90
-32 150 -36 270 -16 59 10 109 15 112 13 6 -7 -47 -38 -113 -66 -64 -27 -118
-28 -264 -2 -143 25 -202 25 -320 0 -122 -26 -179 -25 -324 5 -162 33 -248 32
-405 -5 -156 -37 -233 -38 -360 -4 -52 14 -133 28 -180 31 -75 5 -103 1 -235
-30 -205 -49 -227 -51 -315 -32 -41 9 -129 27 -195 41 -134 29 -308 35 -395
14 -56 -13 -56 -24 -3 -60 51 -35 71 -58 84 -99 20 -64 24 -64 106 -21 41 22
88 40 104 40 18 0 28 4 24 10 -3 6 -17 10 -30 10 -30 0 -84 21 -69 27 6 2 67
-9 135 -25 280 -67 367 -68 569 -7 165 49 227 50 370 5 148 -47 234 -47 390 0
99 30 129 35 215 34 87 0 111 -5 180 -31 44 -17 91 -34 105 -38 40 -10 70 -27
64 -37 -9 -14 -73 -9 -163 14 -51 13 -120 22 -171 22 -75 1 -100 -4 -212 -41
-166 -56 -232 -58 -407 -9 -188 53 -178 53 -373 6 -95 -23 -179 -44 -186 -46
-8 -2 7 -23 40 -53 85 -77 139 -217 139 -355 0 -127 -49 -258 -131 -352 -28
-32 -50 -61 -50 -65 0 -9 129 -79 146 -79 11 0 46 -99 59 -167 l7 -33 128 0
c71 0 141 -5 156 -10 24 -10 21 -4 -23 43 -69 73 -149 231 -164 327 -28 166
47 389 169 508 51 48 168 112 257 137 134 39 347 -3 465 -92 74 -55 161 -160
194 -234 51 -112 58 -295 18 -425 -31 -99 -95 -181 -240 -307 -26 -23 -38 -39
-30 -42 7 -2 75 -5 150 -7 189 -4 200 -19 68 -94 -37 -21 -53 -24 -90 -20 -25
3 -92 8 -150 12 -99 6 -106 5 -124 -15 -20 -22 -20 -22 2 -43 19 -19 35 -22
137 -26 63 -3 115 -8 115 -13 0 -16 -100 -109 -117 -109 -10 0 -28 7 -40 15
-40 28 -121 37 -181 20 -30 -9 -52 -21 -50 -27 10 -30 56 -48 138 -55 97 -9
108 -20 65 -72 -27 -31 -52 -39 -70 -22 -10 9 -92 16 -147 13 -15 -1 -43 -16
-63 -33 -41 -36 -47 -68 -12 -70 29 -2 19 -2 128 6 l96 7 -15 -80 c-14 -74
-14 -82 2 -106 13 -21 20 -24 36 -16 23 13 37 56 45 145 7 79 51 187 66 164 5
-8 9 -49 9 -92 0 -86 11 -117 40 -117 31 0 37 26 45 178 4 78 10 142 14 142 3
0 20 21 36 48 l30 47 3 -75 c1 -41 5 -86 8 -99 l5 -24 25 24 c32 30 45 80 42
163 -3 66 -2 68 32 99 l35 31 5 -44 c3 -24 10 -45 17 -47 19 -7 66 64 61 91
-7 34 17 43 147 56 108 12 111 11 180 -14 38 -15 98 -43 134 -63 35 -19 75
-38 88 -42 19 -5 31 -21 47 -59 37 -93 91 -142 122 -113 5 5 43 26 84 46 88
44 115 67 140 116 18 35 82 99 99 99 5 0 28 -36 51 -80 47 -92 92 -131 177
-156 74 -22 100 -16 137 29 24 31 31 48 31 85 0 26 2 49 5 50 3 2 17 -2 31 -8
24 -11 37 -7 114 29 48 23 110 55 137 71 33 20 61 30 89 30 37 0 39 -1 24 -16
-25 -25 -15 -49 23 -52 36 -4 40 7 16 43 -16 25 -16 25 12 25 15 0 47 -9 70
-20 38 -19 42 -25 48 -67 6 -44 37 -93 59 -93 6 0 8 24 4 60 -3 33 -1 60 4 60
5 0 26 -16 48 -35 l38 -35 7 -116 c4 -65 12 -128 17 -142 l10 -25 24 23 c23
21 25 31 25 109 l0 85 45 -62 c25 -35 43 -67 40 -72 -10 -16 -35 -172 -35
-216 0 -26 6 -47 16 -55 33 -27 63 49 76 196 3 30 3 30 35 -20 31 -50 32 -51
26 -150 -5 -90 -4 -102 15 -125 l20 -24 11 39 c6 22 11 58 12 80 1 88 12 85
68 -18 28 -53 56 -97 62 -97 33 0 15 77 -38 155 -45 68 -44 75 15 60 89 -23
222 -39 233 -28 15 15 -42 77 -95 102 -52 26 -143 28 -188 5 l-30 -16 -49 48
c-67 66 -65 77 14 69 65 -7 173 7 191 25 7 7 3 18 -12 33 -19 19 -35 22 -113
26 -71 2 -100 -1 -130 -15 -39 -17 -40 -17 -65 7 -14 13 -40 41 -57 63 -28 35
-29 38 -8 31 29 -9 168 -10 208 -1 37 9 51 35 27 53 -24 18 -118 27 -188 18
-123 -16 -137 -14 -164 25 -14 21 -19 36 -12 38 17 6 -147 58 -225 71 -186 32
-167 24 -254 120 -44 50 -84 104 -91 126 -27 82 14 260 65 283 24 11 24 11 27
-51 2 -41 -2 -70 -11 -85 -11 -18 -12 -29 -4 -41 7 -12 7 -20 -3 -29 -20 -18
-18 -28 15 -64 l29 -33 139 1 c179 2 188 6 196 79 3 32 8 59 11 62 10 10 26
-9 37 -47 11 -37 10 -45 -21 -111 -38 -84 -34 -106 29 -139 50 -25 211 -30
211 -6 0 27 -59 66 -101 66 -49 0 -51 17 -9 79 17 25 33 56 37 70 9 35 -25 93
-64 111 -38 18 -42 30 -10 30 62 0 120 -72 120 -147 l0 -43 86 6 c47 3 109 12
138 20 43 12 53 19 62 45 6 18 11 47 11 65 0 55 16 47 29 -14 17 -75 41 -128
93 -208 l43 -65 61 3 62 3 -40 43 c-49 53 -90 140 -96 204 l-5 48 32 -6 c29
-6 38 -2 77 37 l45 44 191 5 c161 4 192 8 201 21 6 9 7 24 4 33 -5 14 -27 16
-144 17 -76 1 -151 5 -168 9 l-30 7 37 16 c29 13 69 17 175 17 76 0 143 4 149
8 16 10 26 49 19 71 -5 16 -21 19 -121 25 -67 4 -141 15 -177 26 -75 24 -186
26 -226 5 -16 -8 -47 -37 -71 -64 -43 -52 -82 -70 -145 -67 -25 1 -30 -3 -36
-29 l-6 -30 -8 30 c-10 36 -21 45 -56 45 -27 0 -39 -15 -39 -51 0 -30 -17 -22
-23 11 -5 20 -14 31 -31 36 -32 8 -43 0 -51 -36 -8 -37 -20 -38 -37 -2 -9 18
-22 28 -41 30 -23 3 -29 -2 -38 -27 -13 -36 -25 -40 -34 -11 -8 26 -37 26 -60
0 -11 -12 -25 -18 -36 -15 -20 7 -175 -63 -225 -100 -17 -13 -37 -38 -44 -55
-7 -17 -18 -29 -24 -27 -16 5 -19 46 -5 64 11 13 10 17 -6 29 -10 8 -25 14
-32 14 -45 0 39 60 192 136 152 75 370 108 569 85 l99 -11 66 64 c77 74 109
86 223 86 56 0 100 -7 160 -26 57 -19 117 -29 190 -33 121 -8 140 -18 160 -82
17 -59 -24 -222 -68 -266 l-32 -33 -160 0 c-168 0 -222 -6 -222 -23 0 -25 47
-76 101 -111 68 -44 87 -81 67 -137 -17 -51 -37 -78 -70 -95 l-30 -15 33 -25
c44 -32 27 -31 -29 2 -44 26 -49 26 -152 20 -58 -4 -114 -4 -123 0 -9 3 -47
47 -84 96 l-67 91 -74 -7 c-41 -3 -98 -6 -126 -6 l-51 0 30 -19 c59 -35 85
-77 85 -135 l0 -52 73 -30 c61 -25 75 -35 90 -66 10 -21 41 -56 68 -79 28 -23
61 -63 74 -89 30 -60 63 -86 133 -106 92 -27 217 -22 327 13 129 40 173 109
84 128 -21 5 -42 25 -79 78 -53 77 -58 98 -35 153 21 50 44 42 66 -25 11 -30
32 -75 49 -101 33 -51 28 -49 156 -66 l41 -6 6 69 c6 59 10 72 37 95 29 26 33
27 110 21 69 -5 83 -3 100 12 27 25 25 67 -6 104 -35 42 -95 44 -136 4 -15
-15 -35 -28 -43 -29 -14 -2 -16 1 -19 25 -1 5 16 23 36 39 70 55 188 220 188
261 0 7 -15 18 -34 26 -18 8 -45 27 -58 44 -14 16 -34 31 -44 33 -10 2 -27 19
-36 38 -19 39 -71 191 -88 258 -9 35 -18 46 -44 57 -17 7 -49 29 -70 48 -44
41 -185 112 -265 133 -56 15 -328 37 -343 28 -4 -3 -49 -9 -99 -15 -188 -19
-338 -83 -501 -211 -51 -41 -115 -89 -143 -107 -47 -31 -50 -31 -53 -12 -5 32
86 130 199 216 125 94 169 119 260 150 161 55 319 67 549 40 221 -26 293 -55
487 -203 31 -23 33 -23 39 -6 34 96 74 174 115 224 l50 59 -48 6 c-70 10 -217
41 -302 65 -78 21 -194 26 -266 11 -22 -5 -80 -21 -130 -35 -110 -33 -252 -44
-350 -27 -39 7 -124 30 -190 53 -147 49 -193 54 -317 34 -124 -20 -144 -21
-129 -2 19 22 101 54 174 66 84 15 191 1 322 -40 194 -62 316 -63 510 -4 104
32 134 37 225 38 93 1 117 -3 208 -32 73 -23 139 -36 224 -44 132 -12 180 -5
408 53 163 41 245 38 113 -6 -63 -20 -73 -32 -36 -41 15 -4 59 -20 97 -36 38
-16 72 -26 76 -21 3 4 15 30 25 58 19 51 35 71 95 116 19 15 32 30 28 34 -26
27 -255 33 -379 9 -46 -8 -131 -29 -189 -46 -141 -42 -206 -41 -368 6 -231 66
-318 67 -554 6 -175 -46 -221 -47 -360 -11 -287 76 -392 81 -628 31 -80 -17
-182 -33 -226 -37 -75 -5 -93 -3 -228 36 -124 36 -159 42 -227 40 -89 -2 -114
9 -78 35 40 28 173 21 314 -15 179 -47 229 -44 480 27 87 25 116 28 230 28
135 -1 128 1 360 -69 117 -35 201 -31 370 20 199 60 335 58 526 -7 84 -29 106
-32 204 -32 98 0 124 4 235 38 237 71 307 71 598 -1 167 -41 219 -41 281 0 22
14 43 39 49 56 l11 31 -132 0 c-88 0 -151 5 -187 15 -196 54 -274 67 -375 62
-71 -4 -128 -14 -195 -35 -229 -72 -313 -75 -504 -18 -208 62 -306 63 -511 4
-76 -21 -139 -32 -205 -35 -88 -4 -105 -2 -235 37 -116 34 -160 42 -255 46
-107 5 -123 4 -230 -25 -257 -70 -320 -73 -500 -27 -156 40 -219 46 -420 37
-133 -6 -198 -13 -230 -25 -64 -24 -173 -46 -229 -46 -26 0 -81 9 -122 20
-136 37 -212 50 -248 44 -20 -3 -81 -15 -135 -26 -119 -25 -197 -21 -331 17
-146 41 -251 36 -430 -21 -118 -38 -201 -36 -345 6 -150 45 -256 47 -370 8
-122 -42 -157 -49 -248 -49 -95 0 -145 9 -297 51 -115 32 -224 42 -310 29z
m3303 -118 c29 -25 66 -66 82 -91 55 -85 120 -227 141 -308 l22 -80 116 -6
c64 -4 141 -11 172 -16 76 -12 209 -65 253 -102 33 -27 36 -34 36 -82 0 -38
-6 -62 -22 -86 -29 -42 -180 -173 -232 -201 -50 -27 -176 -110 -176 -117 0 -2
18 -61 40 -131 23 -69 52 -173 65 -231 l24 -105 -25 -25 c-23 -23 -31 -25
-127 -25 -157 1 -260 41 -445 172 -15 11 -28 5 -87 -38 -131 -96 -314 -169
-388 -155 -21 4 -56 24 -84 49 -30 27 -69 49 -104 60 -31 9 -74 30 -95 46
-170 128 -183 141 -243 252 -36 66 -52 119 -35 119 11 0 43 -45 44 -62 0 -9 5
-20 11 -24 6 -3 9 -15 6 -25 -3 -11 -1 -19 3 -19 4 0 13 -13 18 -30 15 -42 68
-93 127 -122 28 -14 89 -46 137 -71 48 -26 89 -43 92 -39 3 5 16 57 30 118 14
60 37 145 51 189 13 44 25 85 25 90 0 6 -14 16 -32 24 -38 17 -178 122 -270
203 -64 56 -128 133 -140 169 -13 36 22 75 109 123 101 55 158 72 301 86 189
20 192 20 192 36 0 22 135 320 170 374 37 57 90 107 134 125 35 15 34 16 104
-44z m1188 -336 c30 -30 28 -45 -8 -63 -30 -14 -72 -3 -81 22 -7 18 29 66 49
66 8 0 26 -11 40 -25z m-2416 -24 c0 -26 -24 -43 -57 -39 -18 2 -29 10 -31 22
-5 24 14 36 56 36 25 0 32 -4 32 -19z m-1115 -34 c21 -30 19 -57 -7 -84 -28
-30 -52 -29 -77 3 -28 36 -26 68 4 92 29 23 59 19 80 -11z m4706 -13 c19 -17
14 -54 -8 -54 -22 0 -53 19 -53 33 0 15 20 37 34 37 5 0 17 -7 27 -16z m-1413
-32 c17 -11 4 -44 -16 -40 -8 2 -21 13 -30 26 -14 21 -13 22 9 22 13 0 30 -4
37 -8z m865 -114 c-2 -5 -3 -24 -3 -44 0 -31 -3 -35 -22 -32 -25 3 -33 26 -24
64 5 19 12 25 29 22 12 -2 21 -6 20 -10z m43 -305 c5 -19 2 -30 -12 -40 -26
-19 -49 5 -40 41 9 36 43 35 52 -1z m-2692 -214 c31 -25 33 -47 5 -83 -52 -66
-132 12 -83 82 19 28 44 28 78 1z m-1610 -24 c17 -17 30 -54 23 -62 -3 -2 -15
5 -26 16 -11 11 -33 24 -47 27 -26 7 -26 8 -9 20 24 18 40 18 59 -1z m1260
-165 c20 0 49 -37 36 -45 -7 -4 -14 2 -17 14 -3 12 -11 21 -17 21 -7 0 -21 7
-32 15 -16 13 -17 16 -4 25 11 7 16 5 18 -10 2 -11 9 -20 16 -20z m170 -179
c75 -45 82 -61 26 -61 -23 0 -69 -7 -102 -16 -33 -8 -67 -13 -74 -10 -23 9
-16 45 17 85 31 39 31 44 12 116 -3 11 10 -2 28 -29 22 -32 55 -62 93 -85z
m1276 -236 c0 -13 -85 -113 -92 -109 -13 8 -9 33 12 74 17 33 26 40 50 40 17
0 30 -2 30 -5z"/>
<path d="M5007 3344 c-60 -65 -190 -324 -212 -422 -9 -43 -30 -52 -116 -52
-151 0 -449 -82 -449 -124 0 -41 248 -244 369 -301 75 -36 75 -33 22 -221 -40
-141 -70 -299 -58 -310 9 -10 138 22 215 52 64 25 204 115 232 149 17 21 37
19 52 -5 16 -25 148 -104 221 -132 52 -20 207 -57 238 -58 15 0 14 12 -8 116
-13 64 -44 172 -69 241 -24 69 -44 127 -44 129 0 2 6 4 13 4 18 0 138 63 197
104 58 39 240 215 240 232 0 7 -33 29 -72 48 -83 41 -184 61 -355 72 -62 4
-117 12 -121 18 -5 6 -21 49 -35 96 -49 159 -181 390 -223 390 -7 0 -24 -12
-37 -26z m76 -260 c48 -73 49 -112 5 -149 -37 -31 -71 -28 -105 11 -27 29 -29
61 -8 112 15 35 52 82 65 82 3 0 22 -25 43 -56z m10 -306 c63 -19 122 -82 141
-150 19 -63 15 -93 -21 -156 -43 -76 -151 -124 -230 -103 -88 24 -144 88 -162
186 -28 152 115 270 272 223z m451 -59 c31 -11 58 -24 61 -29 13 -21 -119
-120 -158 -120 -19 0 -49 57 -62 116 -5 28 -3 33 22 42 43 16 77 14 137 -9z
m-850 -2 c37 -27 -13 -137 -61 -137 -42 0 -110 38 -130 73 l-19 32 46 22 c52
25 137 30 164 10z m619 -441 c17 -24 22 -45 22 -96 0 -59 -2 -65 -22 -68 -37
-5 -111 33 -133 70 -32 52 -26 74 25 107 54 34 76 31 108 -13z m-456 9 c45
-18 47 -24 22 -91 -21 -57 -119 -115 -140 -83 -30 48 24 212 65 196 6 -3 30
-13 53 -22z"/>
<path d="M4965 2626 c-38 -13 -34 -13 62 -12 85 1 100 3 86 14 -21 15 -96 14
-148 -2z"/>
<path d="M1590 3278 c-66 -34 -93 -79 -88 -149 11 -157 196 -205 266 -69 28
56 28 98 -1 141 -20 30 -108 99 -126 99 -4 0 -27 -10 -51 -22z"/>
<path d="M8442 3256 c-83 -90 -61 -200 50 -257 72 -37 151 0 184 86 39 103
-38 215 -147 215 -42 0 -50 -4 -87 -44z"/>
<path d="M1407 3245 c-13 -9 -15 -15 -7 -20 14 -8 34 9 29 23 -3 7 -11 6 -22
-3z"/>
<path d="M2060 3106 c-161 -35 -285 -187 -297 -364 -12 -178 90 -359 243 -429
105 -48 266 -42 374 13 143 72 230 267 202 450 -39 247 -261 387 -522 330z
m251 -91 c107 -54 174 -155 185 -276 20 -213 -110 -359 -320 -359 -61 0 -83 5
-132 30 -76 38 -126 87 -161 158 -24 49 -28 69 -28 142 1 94 25 164 79 228 32
37 102 81 149 93 52 13 189 4 228 -16z"/>
<path d="M2120 2981 c-84 -27 -153 -80 -182 -139 -32 -66 -32 -189 -1 -248 73
-137 203 -187 346 -134 64 24 97 57 131 130 63 136 3 304 -135 376 -37 18
-123 27 -159 15z m113 -105 c52 -19 76 -42 103 -101 32 -68 31 -111 -6 -169
-55 -86 -167 -110 -257 -55 -70 43 -96 167 -50 241 50 83 127 113 210 84z"/>
<path d="M2101 2771 c-53 -50 -35 -128 39 -166 46 -24 75 -19 109 20 44 50 43
95 -3 141 -46 46 -99 47 -145 5z m109 -104 c0 -13 -6 -32 -14 -43 -14 -18 -15
-18 -22 10 -5 22 -3 32 11 43 24 17 25 17 25 -10z"/>
<path d="M7934 3096 c-27 -8 -80 -29 -115 -46 -61 -29 -69 -37 -112 -108 -45
-76 -87 -185 -87 -227 0 -12 23 -68 50 -124 28 -56 50 -108 50 -115 0 -44 109
-112 243 -151 53 -15 61 -15 115 0 77 23 193 77 213 101 29 34 108 197 119
248 13 59 -6 145 -48 215 -15 26 -36 63 -46 84 -45 88 -260 157 -382 123z m16
-135 c0 -16 -7 -36 -15 -45 -8 -8 -15 -20 -15 -27 0 -7 -11 -2 -25 11 -33 31
-32 46 8 70 42 26 47 25 47 -9z m205 -15 c17 -12 17 -13 -9 -20 -31 -8 -46 -1
-46 20 0 18 30 18 55 0z m-352 -133 c-15 -6 -29 -10 -31 -9 -1 2 1 17 4 35 l7
32 24 -23 25 -23 -29 -12z m266 -30 l30 -28 -15 -44 c-18 -50 -35 -71 -58 -71
-9 0 -16 -4 -16 -8 0 -5 -7 -17 -16 -28 -15 -18 -15 -18 -9 4 4 14 0 32 -9 47
-10 14 -15 42 -13 73 2 42 6 53 27 66 35 22 45 20 79 -11z m231 -23 c6 -11 7
-20 2 -20 -6 0 -12 9 -15 20 -3 11 -3 20 -1 20 2 0 8 -9 14 -20z m-20 -145 c0
-2 -8 -18 -18 -35 -19 -30 -19 -30 -37 -10 -20 22 -20 21 15 37 28 13 40 15
40 8z m-480 -9 c0 -3 -4 -8 -10 -11 -5 -3 -10 -1 -10 4 0 6 5 11 10 11 6 0 10
-2 10 -4z m133 -103 l5 -51 -31 9 c-51 15 -54 26 -17 64 18 19 35 34 36 32 1
-1 4 -25 7 -54z m181 36 c-3 -5 -2 -8 3 -7 11 3 63 -32 63 -43 0 -5 -23 -20
-50 -33 -43 -21 -50 -22 -46 -8 3 9 8 38 12 64 3 26 10 45 15 42 5 -3 7 -10 3
-15z"/>
<path d="M8101 2494 c0 -11 3 -14 6 -6 3 7 2 16 -1 19 -3 4 -6 -2 -5 -13z"/>
<path d="M3335 2940 c-2 -4 -30 -10 -62 -13 -82 -8 -186 -58 -240 -115 -59
-62 -86 -122 -73 -156 9 -24 7 -26 -15 -26 -34 0 -44 -25 -56 -132 -12 -102
-2 -162 37 -238 13 -25 26 -57 29 -72 3 -14 17 -41 31 -58 24 -28 31 -31 65
-25 45 8 50 1 13 -18 l-26 -13 38 -34 c22 -19 40 -28 42 -21 6 18 22 13 52
-19 50 -54 100 -34 100 41 0 36 -22 58 -60 59 -36 1 -102 50 -113 85 -13 39
-36 65 -58 65 -25 0 -31 14 -19 45 6 17 6 49 0 96 -8 57 -7 75 5 99 17 32 20
61 11 101 -5 22 -1 27 29 38 29 10 35 17 35 40 0 34 77 111 111 111 12 0 39
18 61 40 43 43 56 46 122 29 32 -8 53 -22 80 -55 l37 -44 26 20 c40 31 49 25
59 -37 8 -51 12 -58 37 -64 32 -9 88 7 100 28 5 7 13 11 19 7 30 -19 -23 50
-85 108 -60 58 -81 71 -146 92 -88 29 -179 47 -186 36z"/>
<path d="M1578 2865 c-9 -21 -8 -28 7 -45 24 -27 39 -25 64 6 27 34 13 64 -30
64 -22 0 -32 -6 -41 -25z"/>
<path d="M3281 2714 c-65 -102 -117 -227 -138 -330 -14 -69 -14 -79 1 -119 19
-48 80 -109 132 -131 78 -33 190 -7 259 60 50 47 70 106 60 170 -17 99 -129
313 -208 394 -22 23 -44 42 -47 42 -3 0 -30 -39 -59 -86z"/>
<path d="M3600 2650 c6 -11 13 -20 16 -20 2 0 0 9 -6 20 -6 11 -13 20 -16 20
-2 0 0 -9 6 -20z"/>
<path d="M3727 2626 c-66 -40 -77 -73 -41 -116 7 -8 14 -22 16 -30 2 -8 9 -20
17 -26 16 -13 5 -38 -14 -30 -9 3 -15 -13 -20 -60 -7 -72 -4 -81 50 -110 35
-19 44 -37 25 -49 -6 -4 -31 3 -55 14 -54 26 -62 26 -69 4 -6 -24 -20 -86 -20
-96 -2 -15 -32 -27 -71 -27 -26 0 -49 -8 -68 -23 -25 -20 -26 -25 -17 -59 6
-21 15 -40 19 -43 18 -10 100 24 152 63 109 82 114 89 152 176 62 143 70 285
22 400 -18 42 -27 43 -78 12z"/>
<path d="M6840 2260 c0 -56 84 -184 134 -205 28 -12 33 -11 53 7 17 16 20 24
12 35 -6 7 -17 13 -25 13 -14 0 -63 59 -107 128 -30 46 -67 58 -67 22z"/>
<path d="M7849 2182 c-26 -23 -31 -33 -25 -55 3 -15 18 -34 32 -43 30 -20 62
-8 86 34 20 34 8 69 -27 82 -34 13 -30 14 -66 -18z"/>
<path d="M2205 2160 c-19 -37 -19 -55 1 -74 49 -49 126 24 83 78 -28 36 -64
34 -84 -4z"/>
<path d="M2428 2121 c-28 -24 -32 -36 -36 -90 -6 -76 11 -101 69 -101 80 0
119 39 119 120 0 34 -6 48 -31 71 -40 38 -79 38 -121 0z"/>
<path d="M5886 2080 c-98 -5 -99 -5 -81 -24 25 -25 114 -66 160 -73 l35 -6 -1
39 c-1 69 -2 70 -113 64z"/>
<path d="M3352 2059 c-30 -11 -47 -56 -33 -86 9 -19 18 -23 53 -23 60 0 73 11
69 57 -1 21 -6 41 -9 44 -14 13 -57 17 -80 8z"/>
<path d="M2775 1936 c-74 -19 -219 -99 -223 -123 -3 -18 4 -21 56 -25 42 -3
84 -16 149 -47 54 -26 126 -50 175 -60 81 -16 83 -18 106 -59 29 -52 50 -64
116 -64 73 -1 110 21 142 85 15 28 50 77 78 107 29 30 61 69 73 85 l21 30 -87
2 c-47 2 -117 8 -156 14 -53 9 -70 9 -73 0 -3 -8 -9 -5 -18 8 -36 51 -238 77
-359 47z"/>
<path d="M4195 1741 c-89 -23 -188 -111 -231 -204 -24 -52 -29 -74 -28 -137 3
-136 65 -228 194 -289 67 -31 174 -34 261 -8 101 30 184 128 209 245 29 133
-72 310 -211 371 -50 22 -150 34 -194 22z m147 -238 c53 -47 62 -127 19 -175
-26 -30 -35 -33 -84 -33 -45 0 -60 5 -81 24 -36 34 -50 83 -37 124 12 34 54
81 81 89 24 7 79 -8 102 -29z"/>
<path d="M5720 1707 c-161 -45 -263 -212 -229 -375 23 -114 81 -192 174 -233
223 -98 467 68 453 310 -7 130 -100 260 -208 291 -60 17 -143 20 -190 7z m117
-296 c22 -46 -21 -88 -57 -56 -24 22 -25 34 -4 63 19 28 44 25 61 -7z"/>
<path d="M2852 1640 c-29 -47 0 -89 38 -55 25 23 26 51 1 65 -25 13 -24 13
-39 -10z"/>
<path d="M5008 1613 c-7 -19 -35 -43 -85 -73 -84 -50 -197 -140 -211 -167 -5
-10 -12 -38 -16 -62 -6 -42 -6 -44 11 -30 10 9 48 32 84 51 37 20 99 59 138
87 56 40 73 48 77 36 13 -32 -9 -62 -88 -125 -172 -137 -229 -203 -199 -233
17 -17 78 19 191 113 52 44 99 80 104 80 5 0 6 -17 3 -37 -5 -31 -22 -53 -91
-118 -73 -69 -166 -191 -166 -217 0 -35 133 39 202 112 26 28 48 50 50 50 2 0
2 -42 0 -92 -3 -92 11 -168 33 -171 6 -1 18 14 28 33 15 29 18 52 14 133 l-4
98 51 -50 c55 -54 159 -121 188 -121 27 0 22 31 -11 76 -34 48 -132 140 -184
174 -21 14 -39 34 -42 45 -2 11 -6 35 -9 53 l-6 34 69 -64 c92 -84 228 -165
247 -146 22 23 -80 140 -211 243 -56 43 -86 75 -94 96 -16 47 -14 51 20 34 43
-23 217 -138 257 -170 l32 -27 0 39 c0 21 -9 52 -19 70 -24 39 -128 126 -184
154 -65 33 -104 66 -111 94 -9 37 -54 35 -68 -2z"/>
<path d="M3052 1487 c-28 -29 -28 -41 0 -67 27 -25 43 -25 68 0 24 24 26 53 4
74 -22 22 -47 20 -72 -7z"/>
<path d="M3792 1432 c-24 -51 -7 -102 24 -71 11 12 11 21 1 56 l-12 41 -13
-26z"/>
<path d="M6259 1205 c-37 -20 -44 -44 -21 -74 30 -41 47 -47 76 -28 38 25 44
62 15 93 -26 28 -34 29 -70 9z"/>
<path d="M3797 1196 c-30 -30 -31 -57 -3 -85 25 -25 27 -25 54 -9 35 21 51 63
31 82 -23 24 -64 29 -82 12z"/>
<path d="M4531 1064 c-36 -30 -39 -55 -10 -95 25 -36 33 -36 70 0 34 34 37 69
9 99 -26 28 -32 28 -69 -4z"/>
<path d="M5465 1055 c-14 -13 -25 -33 -25 -43 0 -22 40 -62 62 -62 19 0 58 46
58 67 0 16 -44 63 -60 63 -6 0 -22 -11 -35 -25z"/>
</g>
</svg>
